<?xml version="1.0" encoding="UTF-8"?>
<svg enable-background="new 0 0 14.004 14.004" version="1.1" viewBox="0 0 14.004 14.004" xml:space="preserve" xmlns="http://www.w3.org/2000/svg">
	<g fill="#030104">
		<path d="m7.002 2.923c-0.472 0-0.917 0.461-1.252 0.796l-4.16 4.162v4.771c0 0.522 0.424 0.946 0.947 0.946h8.932c0.522 0 0.946-0.424 0.946-0.946v-4.771l-4.161-4.162c-0.334-0.335-0.78-0.796-1.252-0.796zm2.887 7.04h-1.915v1.915h-1.944v-1.915h-1.916v-1.943h1.916v-1.916h1.944v1.916h1.915v1.943z"/>
		<path d="m13.779 5.947-4.718-4.715c-1.101-1.101-3.017-1.101-4.12 0l-4.715 4.715c-0.301 0.301-0.301 0.787 0 1.089 0.29 0.29 0.797 0.29 1.087 0l4.716-4.717c0.52-0.52 1.426-0.52 1.945 0l4.716 4.717c0.145 0.145 0.339 0.224 0.543 0.224 0.205 0 0.399-0.079 0.546-0.224 0.3-0.302 0.3-0.788 0-1.089z"/>
	</g>
</svg>
